# xmcd
#
# Track frame offsets:
#	150
#	16391
#	32511
#	47637
#	62870
#	83489
#	99246
#	113706
#	128078
#	144233
#	159702
#	176441
#	192696
#	208233
#	223451
#	238170
#	256977
#	274638
#	291852
#	306447
#	323067
#	342063
#
# Disc length: 4795 seconds
#
# Revision: 2
# Processed by: cddbd v1.5.1PL0 Copyright (c) Steve Scherf et al.
# Submitted via: EasyCDDAExtractor 6.0.0.1
#
DISCID=4612b916
DTITLE=Kelly Chan - Stylish Index
DYEAR=2004
DGENRE=
TTITLE0=PHONE殺令
TTITLE1=無限
TTITLE2=別來無恙
TTITLE3=對不起不是你
TTITLE4=念口簧
TTITLE5=潔身自愛
TTITLE6=KELLY BAG
TTITLE7=鞋呀鞋
TTITLE8=飛行里數
TTITLE9=閣樓
TTITLE10=郵票
TTITLE11=殺掉日名單
TTITLE12=美麗的新娘
TTITLE13=不要說抱歉
TTITLE14=LOVE PARADISE
TTITLE15=我不夠愛你
TTITLE16=伶仃
TTITLE17=她比我醜
TTITLE18=愛一個人
TTITLE19=愛情來了
TTITLE20=記事本
TTITLE21=心不設防
EXTD=
EXTT0=
EXTT1=
EXTT2=
EXTT3=
EXTT4=
EXTT5=
EXTT6=
EXTT7=
EXTT8=
EXTT9=
EXTT10=
EXTT11=
EXTT12=
EXTT13=
EXTT14=
EXTT15=
EXTT16=
EXTT17=
EXTT18=
EXTT19=
EXTT20=
EXTT21=
PLAYORDER=
